/* XPM */
static char *wall_east[] = {
"10 10 2 1",
"  c #000000",
". c #FFFF00",
"..........",
"..........",
"..........",
"..........",
"...***....",
"...   ....",
"..........",
"...***....",
"..........",
".........."
};
